<svg width="800" height="800" xmlns="http://www.w3.org/2000/svg">
 <g>
  <title>Layer 1</title>
  <g id="svg_38">
   <title id="svg_21">commerce</title>
   <path id="svg_22" d="m281.70001,334l-1.5,-8.2l0,0c0,-0.1 0,-0.1 0.1,-0.2c0.1,0 0.1,-0.1 0.2,-0.1l0.9,0c0.1,0 0.2,0 0.3,0.1c0.1,0.1 0.1,0.1 0.1,0.2l0.8,5l0,0l0.1,0l0,0l0.7,-5c0,-0.1 0,-0.1 0.1,-0.2c0,-0.1 0.1,-0.1 0.2,-0.1c0.1,0 0.1,0 0.2,0l1,0c0.1,0 0.1,0 0.2,0c0.1,0 0.1,0.1 0.1,0.1c0,0 0.1,0.1 0.1,0.2l0.9,5.1c0,0 0,0 0.1,0l0,0l0,0l0.7,-5.1c0,-0.1 0.1,-0.2 0.1,-0.2c0.1,-0.1 0.2,-0.1 0.3,-0.1l0.9,0c0,0 0.1,0 0.1,0c0,0 0.1,0.1 0.1,0.1c0,0 0,0.1 0,0.1l-1.3,8.1c0,0.1 -0.1,0.2 -0.1,0.3c-0.1,0.1 -0.2,0.1 -0.3,0.1l-1.4,0c-0.1,0 -0.2,0 -0.3,-0.1c-0.1,-0.1 -0.1,-0.1 -0.1,-0.2l-0.7,-4l-0.6,3.9c0,0.1 -0.1,0.2 -0.2,0.3c-0.1,0.1 -0.2,0.1 -0.3,0.1l-1.1,0c-0.1,0 -0.1,0 -0.2,0c-0.1,0 -0.1,-0.1 -0.1,-0.1c-0.1,0.1 -0.1,0 -0.1,-0.1z"/>
   <path id="svg_23" d="m289.30001,333.9l0,-8.1c0,-0.1 0,-0.2 0.1,-0.2c0,0 0.1,-0.1 0.2,-0.1l3.7,0c0.1,0 0.2,0 0.2,0.1c0.1,0.1 0.1,0.1 0.1,0.2l0,0.9c0,0.1 0,0.1 0,0.2c0,0 0,0.1 -0.1,0.1c-0.1,0 -0.1,0 -0.2,0l-2.5,0l0,2l1.9,0c0.1,0 0.2,0 0.2,0.1c0.1,0.1 0.1,0.1 0.1,0.2l0,0.9c0,0.1 0,0.2 -0.1,0.2c-0.1,0.1 -0.1,0.1 -0.2,0.1l-1.9,0l0,2.2l2.5,0c0.1,0 0.2,0 0.2,0.1c0.1,0.1 0.1,0.1 0.1,0.2l0,0.9c0,0.1 0,0.1 0,0.2c0,0 -0.1,0.1 -0.1,0.1c-0.1,0 -0.1,0 -0.2,0l-3.7,0c-0.1,0 -0.2,0 -0.2,-0.1c-0.1,0 -0.1,-0.1 -0.1,-0.2z"/>
   <path id="svg_24" d="m296.60001,333.9l0,-7.8c0,-0.1 0,-0.2 0.1,-0.3c0.1,-0.1 0.1,-0.1 0.2,-0.2c0.1,0 0.2,-0.1 0.3,-0.1l2.5,0c0.3,0 0.5,0.1 0.8,0.2c0.2,0.1 0.4,0.3 0.6,0.6c0,0.3 0.1,0.6 0.1,0.9l0,1c0,0.2 0,0.4 -0.1,0.6c-0.1,0.2 -0.2,0.4 -0.3,0.6c-0.1,0.2 -0.3,0.3 -0.6,0.4c0.4,0.1 0.7,0.3 0.9,0.6c0.2,0.4 0.3,0.8 0.3,1.2l0,0.9c0,0.3 0,0.6 -0.1,0.9c-0.1,0.2 -0.2,0.4 -0.4,0.6c-0.1,0.1 -0.3,0.3 -0.5,0.3c-0.2,0.1 -0.4,0.1 -0.6,0.1l-2.9,0c-0.1,0 -0.1,0 -0.2,-0.1c-0.1,0 -0.1,-0.1 -0.1,-0.1c0,-0.2 -0.1,-0.2 0,-0.3zm2.4,-4.8c0.1,0 0.2,0 0.3,-0.1c0.1,-0.1 0.2,-0.2 0.2,-0.3c0.1,-0.2 0.1,-0.3 0.1,-0.5l0,-0.6c0,-0.2 0,-0.5 -0.2,-0.7c-0.2,-0.2 -0.4,-0.2 -0.6,-0.2l-0.6,0c-0.1,0 -0.1,0 -0.1,0.1c0,0 -0.1,0.1 -0.1,0.1l0,2.1c0,0.1 0.1,0.1 0.1,0.1l0.9,0zm0.2,4c0.2,0 0.4,-0.1 0.6,-0.3c0.1,-0.2 0.2,-0.4 0.2,-0.7l0,-0.6c0,-0.2 0,-0.4 -0.1,-0.6c-0.1,-0.1 -0.1,-0.2 -0.3,-0.3c-0.2,-0.1 -0.4,-0.2 -0.6,-0.1l-0.8,0c0,-0.1 0,0 -0.1,0c0,0.1 0,0.1 0,0.2l0,2.3c0,0 0,0.1 0,0.1c0.1,0 0.1,0 0.2,0l0.9,0z"/>
   <path id="svg_25" d="m302.90001,333.1c-0.2,-0.4 -0.3,-0.8 -0.3,-1.2l0,-5.8c0,-0.1 0,-0.2 0.1,-0.3c0,-0.1 0.1,-0.1 0.2,-0.2c0,-0.1 0.1,-0.1 0.2,-0.1l0.7,0l0.1,0c0,0 0.1,0 0.1,0.1c0.1,0 0.1,0.1 0.1,0.2c0,0.1 0,0.2 0,0.3l0,5.7c0,0.2 0,0.4 0.1,0.5c0.1,0.2 0.2,0.3 0.4,0.4c0.1,0.1 0.3,0.1 0.5,0.1l0.2,0c0.2,0 0.3,0 0.5,-0.1c0.1,-0.1 0.3,-0.2 0.4,-0.4c0.1,-0.2 0.1,-0.3 0.1,-0.5l0,-5.7c0,-0.1 0,-0.2 0.1,-0.3c0,-0.1 0.1,-0.1 0.2,-0.2c0.1,-0.1 0.2,-0.1 0.3,-0.1l0.5,0c0.1,0 0.2,0 0.3,0.1c0.1,0 0.1,0.1 0.2,0.2c0,0.1 0.1,0.2 0.1,0.4l0,5.8c0,0.3 0,0.6 -0.1,0.8c-0.1,0.3 -0.2,0.5 -0.4,0.7c-0.2,0.2 -0.4,0.4 -0.7,0.6c-0.4,0.2 -0.8,0.3 -1.2,0.3l-0.5,0c-0.3,0 -0.6,0 -0.9,-0.1c-0.3,-0.1 -0.5,-0.2 -0.7,-0.4c-0.3,-0.4 -0.5,-0.6 -0.6,-0.8z"/>
   <path id="svg_26" d="m310.20001,334l0,-3.6c0,-0.2 -0.1,-0.4 -0.2,-0.6l-1.5,-3.8c0,-0.1 0,-0.1 0,-0.2c0,0 0,-0.1 0,-0.2c0,-0.1 0.1,-0.1 0.2,-0.1c0.1,0 0.2,0 0.2,0l0.8,0c0.2,0 0.3,0.1 0.4,0.3l0.8,2.5c0,0 0,0 0.1,0l0,0l0.9,-2.5c0,-0.1 0.1,-0.1 0.1,-0.2c0.1,-0.1 0.2,-0.1 0.3,-0.1l0.8,0c0.1,0 0.2,0 0.2,0.1c0.1,0 0.1,0.1 0.2,0.1c0,0.1 0,0.1 0,0.2c0,0 0.1,0.1 0.1,0.1l0,0l-1.5,3.8c-0.1,0.2 -0.1,0.4 -0.2,0.6l0,3.6c0,0.1 0,0.1 0,0.2c0,0.1 -0.1,0.1 -0.2,0.1c-0.1,0 -0.1,0 -0.2,0.1l-0.9,0c-0.1,0 -0.1,0 -0.2,-0.1c-0.1,0 -0.1,-0.1 -0.1,-0.1c-0.1,-0.1 -0.1,-0.1 -0.1,-0.2z"/>
   <path id="svg_27" d="m316.20001,333.9l0,-8.1c0,-0.1 0.2,-0.3 0.3,-0.3c0,0 0,0 0,0l3.7,0c0.2,0 0.3,0.1 0.3,0.3c0,0 0,0 0,0l0,0.9c0,0.1 0,0.1 0,0.2c0,0.1 -0.1,0.1 -0.1,0.1c-0.1,0 -0.1,0 -0.2,0l-2.5,0l0,2l1.9,0c0.1,0 0.2,0 0.2,0.1c0.1,0.1 0.1,0.1 0.1,0.2l0,0.9c0,0.1 0,0.2 -0.1,0.2c0,0.1 -0.1,0.1 -0.2,0.1l-1.9,0l0,2.2l2.5,0c0.2,0 0.3,0.1 0.3,0.3c0,0 0,0 0,0l0,0.9c0,0.1 0,0.1 0,0.2c0,0 -0.1,0.1 -0.1,0.1c-0.1,0 -0.1,0 -0.2,0l-3.7,0c-0.1,0 -0.2,0 -0.2,-0.1c0,0 -0.1,-0.1 -0.1,-0.2z"/>
   <path id="svg_28" d="m321.90001,333.2c-0.2,-0.4 -0.3,-0.8 -0.3,-1.2l0,-4.2c0,-0.3 0,-0.6 0.1,-0.8c0.1,-0.3 0.2,-0.5 0.4,-0.7c0.2,-0.2 0.4,-0.4 0.6,-0.5c0.4,-0.2 0.8,-0.3 1.2,-0.3l0.4,0c0.3,0 0.5,0 0.8,0.1c0.2,0.1 0.5,0.2 0.7,0.3c0.2,0.1 0.4,0.3 0.5,0.5c0.2,0.3 0.4,0.8 0.4,1.2c0,0.1 0,0.1 -0.1,0.2c0,0 -0.1,0.1 -0.2,0.1l-1,0c-0.1,0 -0.1,0 -0.2,-0.1c0,-0.1 0,-0.2 0,-0.2c0,-0.2 -0.1,-0.3 -0.2,-0.5c-0.1,-0.1 -0.2,-0.2 -0.3,-0.2c-0.2,0 -0.3,-0.1 -0.5,-0.1l0,0c-0.2,0 -0.3,0 -0.5,0.1c-0.1,0.1 -0.3,0.2 -0.4,0.3c-0.1,0.1 -0.1,0.3 -0.1,0.5l0,4.1c0,0.2 0.1,0.3 0.1,0.5c0.1,0.2 0.2,0.3 0.4,0.4c0.2,0.1 0.3,0.1 0.5,0.1l0,0c0.2,0 0.3,0 0.5,-0.1c0.1,-0.1 0.3,-0.2 0.3,-0.4c0.1,-0.2 0.1,-0.3 0.1,-0.5l0,-0.5l-0.6,0c-0.1,0 -0.1,0 -0.2,-0.1c0,-0.1 -0.1,-0.1 0,-0.2l0,-0.9c0,0 0,-0.1 0,-0.1c0,-0.1 0.1,-0.1 0.1,-0.1c0.1,0 0.1,0 0.2,0l2,0c0,0 0.1,0 0.1,0c0,0 0.1,0.1 0.1,0.1c0,0 0,0.1 0,0.1l0,1.8c0,0.3 -0.1,0.6 -0.2,0.9c-0.1,0.3 -0.2,0.5 -0.4,0.7c-0.2,0.2 -0.4,0.4 -0.6,0.6c-0.4,0.2 -0.8,0.3 -1.2,0.3l-0.4,0c-0.3,0 -0.6,0 -0.8,-0.1c-0.3,-0.1 -0.5,-0.2 -0.7,-0.4c-0.3,-0.3 -0.5,-0.5 -0.6,-0.7z"/>
   <path id="svg_29" d="m327.90001,334l0,-8.1c0,-0.1 0,-0.1 0,-0.2c0,-0.1 0.1,-0.1 0.1,-0.1c0.1,0 0.1,0 0.2,0l2.5,0c0.3,0 0.7,0.1 1,0.2c0.3,0.1 0.5,0.4 0.7,0.6c0.2,0.3 0.2,0.6 0.2,0.9l0,1.5c0,0.2 0,0.4 -0.1,0.6c-0.1,0.2 -0.2,0.4 -0.3,0.5c-0.1,0.2 -0.3,0.3 -0.5,0.4l0,0l1.3,3.7c0,0 0,0.1 0,0.1c0,0.1 0,0.1 -0.1,0.1c0,0 -0.1,0.1 -0.2,0.1l-1.1,0c-0.1,0 -0.1,0 -0.2,0c-0.1,0 -0.1,-0.1 -0.2,-0.1c0,0 -0.1,-0.1 -0.1,-0.1l-1,-3.1c-0.1,-0.1 -0.2,-0.1 -0.3,-0.1c-0.1,0 -0.3,0.1 -0.3,0.2l0,3c0,0.1 0,0.2 -0.1,0.2c-0.1,0.1 -0.2,0.1 -0.2,0.1l-1,0c-0.1,0 -0.2,0 -0.3,-0.1c0,-0.1 0,-0.2 0,-0.3zm2.4,-4.7c0.1,0 0.2,0 0.3,-0.1c0.1,0 0.2,-0.1 0.3,-0.2c0.1,-0.1 0.1,-0.2 0.1,-0.3l0,-1.2c0,-0.1 0,-0.2 -0.1,-0.3c-0.1,-0.1 -0.1,-0.2 -0.3,-0.3c-0.1,-0.1 -0.2,-0.1 -0.3,-0.1l-0.7,0c0,0 -0.1,0 -0.1,0.1c0,0 0,0.1 0,0.1l0,2.1c0,0.1 0,0.1 0.1,0.1c0,0 0.1,0.1 0.2,0.1l0.5,0z"/>
   <path id="svg_30" d="m342.40001,333.9l0,-8.1c0,-0.1 0.1,-0.2 0.1,-0.2c0.1,-0.1 0.2,-0.1 0.3,-0.1l3.7,0c0.1,0 0.2,0 0.2,0.1c0.1,0.1 0.1,0.1 0.1,0.2l0,0.9c0,0.1 0,0.1 0,0.2c0,0.1 -0.1,0.1 -0.1,0.1c-0.1,0 -0.1,0 -0.2,0l-2.6,0l0,2l1.9,0c0.1,0 0.2,0 0.2,0.1c0.1,0.1 0.2,0.1 0.2,0.2l0,0.9c0,0.1 0,0.2 -0.1,0.2c-0.1,0.1 -0.2,0.1 -0.3,0.1l-1.9,0l0,2.2l2.5,0c0.1,0 0.2,0 0.2,0.1c0.1,0.1 0.1,0.1 0.1,0.2l0,0.9c0,0.1 0,0.1 0,0.2c0,0 -0.1,0.1 -0.1,0.1c-0.1,0 -0.1,0 -0.2,0l-3.7,0c-0.1,0 -0.2,0 -0.3,-0.1c0.1,0 0,-0.1 0,-0.2z"/>
   <path id="svg_31" d="m349.10001,334l0,-3.6c0,-0.2 -0.1,-0.4 -0.2,-0.6l-1.4,-3.8c0,-0.1 0,-0.1 0,-0.2c0,-0.1 0,-0.1 0,-0.2c0,-0.1 0.1,-0.1 0.2,-0.1c0,0 0.1,0 0.1,0l0.8,0c0.2,0 0.3,0.1 0.4,0.3l0.8,2.5c0,0 0,0 0.1,0l0,0l0.9,-2.5c0.1,-0.2 0.2,-0.3 0.4,-0.3l0.8,0c0,0 0.1,0 0.2,0c0.1,0 0.1,0.1 0.2,0.1c0,0.1 0,0.1 0,0.2c0,0 0,0.1 0,0.1l0,0.1l-1.4,3.8c-0.1,0.2 -0.1,0.4 -0.2,0.6l0,3.6c0,0.1 0,0.1 -0.1,0.2c0,0.1 -0.1,0.1 -0.1,0.1c-0.1,0 -0.1,0 -0.2,0.1l-0.9,0c-0.1,0 -0.1,0 -0.2,-0.1c-0.1,0 -0.1,-0.1 -0.2,-0.1c0,-0.1 0,-0.1 0,-0.2z"/>
   <path id="svg_32" d="m353.20001,333.9l0,-8.1c0,-0.1 0,-0.2 0.1,-0.2c0.1,-0.1 0.2,-0.1 0.3,-0.1l3.7,0c0.1,0 0.2,0 0.2,0.1c0.1,0.1 0.1,0.1 0.1,0.2l0,0.9c0,0.1 0,0.1 0,0.2c0,0.1 -0.1,0.1 -0.1,0.1c-0.1,0 -0.1,0 -0.2,0l-2.6,0l0,2l1.9,0c0.1,0 0.2,0 0.2,0.1c0.1,0.1 0.1,0.1 0.1,0.2l0,0.9c0,0.1 0,0.2 -0.1,0.2c0,0.1 -0.1,0.1 -0.2,0.1l-1.9,0l0,2.2l2.5,0c0.1,0 0.2,0 0.2,0.1c0.1,0.1 0.1,0.1 0.1,0.2l0,0.9c0,0.1 0,0.1 0,0.2c0,0 -0.1,0.1 -0.1,0.1c-0.1,0 -0.1,0 -0.2,0l-3.7,0c-0.1,0 -0.3,-0.1 -0.3,-0.3c0,0 0,0 0,0l0,0z"/>
   <path id="svg_33" d="m359.70001,334l-1.5,-8.2l0,0c0,-0.1 0,-0.1 0.1,-0.2c0.1,0 0.2,-0.1 0.3,-0.1l0.9,0c0.1,0 0.2,0 0.3,0.1c0.1,0.1 0.1,0.1 0.1,0.2l0.8,5l0,0l0.1,0l0,0l0.7,-5c0,-0.1 0.1,-0.1 0.1,-0.1c0,-0.1 0.1,-0.1 0.2,-0.1c0.1,0 0.1,0 0.2,0l1,0c0.1,0 0.1,0 0.2,0c0.1,0 0.1,0.1 0.2,0.1c0,0 0.1,0.1 0.1,0.2l0.8,5.2l0,0l0,0l0,0l0.7,-5.1c0,-0.1 0.1,-0.2 0.1,-0.2c0.1,-0.1 0.2,-0.1 0.3,-0.1l0.9,0c0,0 0.1,0 0.2,0c0,0 0.1,0.1 0.1,0.1c0,0 0,0.1 0,0.1l-1.3,8.1c0,0.1 -0.1,0.2 -0.1,0.3c-0.1,0.1 -0.2,0.1 -0.3,0.1l-1.1,0c-0.1,0 -0.2,0 -0.2,-0.1c-0.1,-0.1 -0.1,-0.1 -0.2,-0.2l-0.7,-4l-0.6,3.9c0,0.1 -0.1,0.2 -0.2,0.3c-0.1,0.1 -0.2,0.1 -0.3,0.1l-1.2,0c-0.1,0 -0.1,0 -0.2,0c-0.1,0 -0.1,-0.1 -0.2,-0.1c-0.2,-0.2 -0.3,-0.2 -0.3,-0.3z"/>
   <path id="svg_34" d="m367.30001,333.9l0,-8.1c0,-0.1 0,-0.2 0.1,-0.2c0.1,-0.1 0.2,-0.1 0.3,-0.1l3.7,0c0.1,0 0.2,0 0.2,0.1c0.1,0.1 0.1,0.1 0.1,0.2l0,0.9c0,0.1 0,0.1 0,0.2c0,0.1 -0.1,0.1 -0.1,0.1c-0.1,0 -0.1,0 -0.2,0l-2.6,0l0,2l1.9,0c0.1,0 0.2,0 0.2,0.1c0.1,0.1 0.1,0.1 0.1,0.2l0,0.9c0,0.1 0,0.2 -0.1,0.2c0,0.1 -0.1,0.1 -0.2,0.1l-1.9,0l0,2.2l2.5,0c0.1,0 0.2,0 0.2,0.1c0.1,0.1 0.1,0.1 0.1,0.2l0,0.9c0,0.1 0,0.1 0,0.2c0,0 -0.1,0.1 -0.1,0.1c-0.1,0 -0.1,0 -0.2,0l-3.7,0c-0.1,0 -0.3,-0.1 -0.3,-0.3c0,0 0,0 0,0l0,0z"/>
   <path id="svg_35" d="m372.30001,334l0,0l1.7,-8.1c0,-0.1 0.1,-0.2 0.2,-0.2c0.1,-0.1 0.2,-0.1 0.3,-0.1l1.6,0c0.1,0 0.1,0 0.2,0c0.1,0 0.1,0.1 0.2,0.1c0,0 0.1,0.1 0.1,0.2l1.6,8.1l0,0c0,0.1 0,0.1 -0.1,0.2c-0.1,0.1 -0.1,0.1 -0.2,0.1l-1.1,0c-0.2,0 -0.3,-0.1 -0.3,-0.2c0,0 0,0 0,0l-0.4,-2l-1.6,0l-0.4,2c0,0.1 0,0.2 -0.1,0.2c-0.1,0 -0.1,0.1 -0.2,0.1l-1.1,0c-0.1,0 -0.2,0 -0.2,-0.1c-0.2,-0.2 -0.3,-0.2 -0.2,-0.3zm3.4,-3.5l-0.5,-3.1l0,0l-0.1,0l0,0l-0.5,3.1l1.1,0z"/>
   <path id="svg_36" d="m378.80001,334l0,-8.1c0,-0.1 0,-0.1 0,-0.2c0,-0.1 0.1,-0.1 0.1,-0.1c0.1,0 0.1,0 0.2,0l2.4,0c0.3,0 0.7,0.1 1,0.2c0.3,0.1 0.5,0.4 0.7,0.6c0.2,0.3 0.2,0.6 0.2,0.9l0,1.5c0,0.2 0,0.4 -0.1,0.6c-0.1,0.2 -0.2,0.4 -0.3,0.5c-0.1,0.2 -0.3,0.3 -0.5,0.4l0,0l1.3,3.7c0,0 0,0 0,0.1c0,0.1 0,0.1 -0.1,0.1c0,0 -0.1,0.1 -0.2,0.1l-1.1,0c-0.1,0 -0.1,0 -0.2,0c-0.1,0 -0.1,-0.1 -0.1,-0.1c0,0 -0.1,-0.1 -0.1,-0.1l-1,-3.1c-0.1,-0.1 -0.2,-0.1 -0.3,-0.1c-0.1,0 -0.3,0.1 -0.3,0.2l0,3c0,0.1 0,0.2 -0.1,0.2c-0.1,0.1 -0.1,0.1 -0.2,0.1l-1,0c-0.1,0 -0.2,0 -0.3,-0.1c0.1,-0.1 0,-0.2 0,-0.3zm2.4,-4.7c0.1,0 0.2,0 0.3,-0.1c0.1,-0.1 0.2,-0.1 0.3,-0.2c0.1,-0.1 0.1,-0.2 0.1,-0.3l0,-1.2c0,-0.1 0,-0.2 -0.1,-0.3c-0.1,-0.1 -0.2,-0.2 -0.3,-0.3c-0.1,-0.1 -0.2,-0.1 -0.3,-0.1l-0.7,0c0,0 -0.1,0 -0.1,0.1c0,0 0,0.1 0,0.1l0,2.1c0,0.1 0,0.1 0.1,0.1c0,0 0.1,0.1 0.2,0.1l0.5,0z"/>
   <rect id="svg_37" height="13" width="1" y="322.5" x="337.60001"/>
  </g>
  <rect stroke="null" id="svg_41" height="798.90051" width="797.77687" y="0.01204" x="1.1116" fill="#ffffff"/>
  <g>
   <title>commerce</title>
   <path d="m324.21192,378.07931l-1.5,-8.2l0,0c0,-0.1 0,-0.1 0.1,-0.2c0.1,0 0.1,-0.1 0.2,-0.1l0.9,0c0.1,0 0.2,0 0.3,0.1c0.1,0.1 0.1,0.1 0.1,0.2l0.8,5l0,0l0.1,0l0,0l0.7,-5c0,-0.1 0,-0.1 0.1,-0.2c0,-0.1 0.1,-0.1 0.2,-0.1c0.1,0 0.1,0 0.2,0l1,0c0.1,0 0.1,0 0.2,0c0.1,0 0.1,0.1 0.1,0.1c0,0 0.1,0.1 0.1,0.2l0.9,5.1c0,0 0,0 0.1,0l0,0l0,0l0.7,-5.1c0,-0.1 0.1,-0.2 0.1,-0.2c0.1,-0.1 0.2,-0.1 0.3,-0.1l0.9,0c0,0 0.1,0 0.1,0c0,0 0.1,0.1 0.1,0.1c0,0 0,0.1 0,0.1l-1.3,8.1c0,0.1 -0.1,0.2 -0.1,0.3c-0.1,0.1 -0.2,0.1 -0.3,0.1l-1.4,0c-0.1,0 -0.2,0 -0.3,-0.1c-0.1,-0.1 -0.1,-0.1 -0.1,-0.2l-0.7,-4l-0.6,3.9c0,0.1 -0.1,0.2 -0.2,0.3c-0.1,0.1 -0.2,0.1 -0.3,0.1l-1.1,0c-0.1,0 -0.1,0 -0.2,0c-0.1,0 -0.1,-0.1 -0.1,-0.1c-0.1,0.1 -0.1,0 -0.1,-0.1z"/>
   <path d="m331.81192,377.97931l0,-8.1c0,-0.1 0,-0.2 0.1,-0.2c0,0 0.1,-0.1 0.2,-0.1l3.7,0c0.1,0 0.2,0 0.2,0.1c0.1,0.1 0.1,0.1 0.1,0.2l0,0.9c0,0.1 0,0.1 0,0.2c0,0 0,0.1 -0.1,0.1c-0.1,0 -0.1,0 -0.2,0l-2.5,0l0,2l1.9,0c0.1,0 0.2,0 0.2,0.1c0.1,0.1 0.1,0.1 0.1,0.2l0,0.9c0,0.1 0,0.2 -0.1,0.2c-0.1,0.1 -0.1,0.1 -0.2,0.1l-1.9,0l0,2.2l2.5,0c0.1,0 0.2,0 0.2,0.1c0.1,0.1 0.1,0.1 0.1,0.2l0,0.9c0,0.1 0,0.1 0,0.2c0,0 -0.1,0.1 -0.1,0.1c-0.1,0 -0.1,0 -0.2,0l-3.7,0c-0.1,0 -0.2,0 -0.2,-0.1c-0.1,0 -0.1,-0.1 -0.1,-0.2z"/>
   <path d="m339.11192,377.8793l0,-7.8c0,-0.1 0,-0.2 0.1,-0.3c0.1,-0.1 0.1,-0.1 0.2,-0.2c0.1,0 0.2,-0.1 0.3,-0.1l2.5,0c0.3,0 0.5,0.1 0.8,0.2c0.2,0.1 0.4,0.3 0.6,0.6c0,0.3 0.1,0.6 0.1,0.9l0,1c0,0.2 0,0.4 -0.1,0.6c-0.1,0.2 -0.2,0.4 -0.3,0.6c-0.1,0.2 -0.3,0.3 -0.6,0.4c0.4,0.1 0.7,0.3 0.9,0.6c0.2,0.4 0.3,0.8 0.3,1.2l0,0.9c0,0.3 0,0.6 -0.1,0.9c-0.1,0.2 -0.2,0.4 -0.4,0.6c-0.1,0.1 -0.3,0.3 -0.5,0.3c-0.2,0.1 -0.4,0.1 -0.6,0.1l-2.9,0c-0.1,0 -0.1,0 -0.2,-0.1c-0.1,0 -0.1,-0.1 -0.1,-0.1c0,-0.2 -0.1,-0.2 0,-0.3zm2.4,-4.8c0.1,0 0.2,0 0.3,-0.1c0.1,-0.1 0.2,-0.2 0.2,-0.3c0.1,-0.2 0.1,-0.3 0.1,-0.5l0,-0.6c0,-0.2 0,-0.5 -0.2,-0.7c-0.2,-0.2 -0.4,-0.2 -0.6,-0.2l-0.6,0c-0.1,0 -0.1,0 -0.1,0.1c0,0 -0.1,0.1 -0.1,0.1l0,2.1c0,0.1 0.1,0.1 0.1,0.1l0.9,0zm0.2,4c0.2,0 0.4,-0.1 0.6,-0.3c0.1,-0.2 0.2,-0.4 0.2,-0.7l0,-0.6c0,-0.2 0,-0.4 -0.1,-0.6c-0.1,-0.1 -0.1,-0.2 -0.3,-0.3c-0.2,-0.1 -0.4,-0.2 -0.6,-0.1l-0.8,0c0,-0.1 0,0 -0.1,0c0,0.1 0,0.1 0,0.2l0,2.3c0,0 0,0.1 0,0.1c0.1,0 0.1,0 0.2,0l0.9,0z"/>
   <path d="m345.41192,377.0793c-0.2,-0.4 -0.3,-0.8 -0.3,-1.2l0,-5.8c0,-0.1 0,-0.2 0.1,-0.3c0,-0.1 0.1,-0.1 0.2,-0.2c0,-0.1 0.1,-0.1 0.2,-0.1l0.7,0l0.1,0c0,0 0.1,0 0.1,0.1c0.1,0 0.1,0.1 0.1,0.2c0,0.1 0,0.2 0,0.3l0,5.7c0,0.2 0,0.4 0.1,0.5c0.1,0.2 0.2,0.3 0.4,0.4c0.1,0.1 0.3,0.1 0.5,0.1l0.2,0c0.2,0 0.3,0 0.5,-0.1c0.1,-0.1 0.3,-0.2 0.4,-0.4c0.1,-0.2 0.1,-0.3 0.1,-0.5l0,-5.7c0,-0.1 0,-0.2 0.1,-0.3c0,-0.1 0.1,-0.1 0.2,-0.2c0.1,-0.1 0.2,-0.1 0.3,-0.1l0.5,0c0.1,0 0.2,0 0.3,0.1c0.1,0 0.1,0.1 0.2,0.2c0,0.1 0.1,0.2 0.1,0.4l0,5.8c0,0.3 0,0.6 -0.1,0.8c-0.1,0.3 -0.2,0.5 -0.4,0.7c-0.2,0.2 -0.4,0.4 -0.7,0.6c-0.4,0.2 -0.8,0.3 -1.2,0.3l-0.5,0c-0.3,0 -0.6,0 -0.9,-0.1c-0.3,-0.1 -0.5,-0.2 -0.7,-0.4c-0.3,-0.4 -0.5,-0.6 -0.6,-0.8z"/>
   <path d="m352.71192,377.9793l0,-3.6c0,-0.2 -0.1,-0.4 -0.2,-0.6l-1.5,-3.8c0,-0.1 0,-0.1 0,-0.2c0,0 0,-0.1 0,-0.2c0,-0.1 0.1,-0.1 0.2,-0.1c0.1,0 0.2,0 0.2,0l0.8,0c0.2,0 0.3,0.1 0.4,0.3l0.8,2.5c0,0 0,0 0.1,0l0,0l0.9,-2.5c0,-0.1 0.1,-0.1 0.1,-0.2c0.1,-0.1 0.2,-0.1 0.3,-0.1l0.8,0c0.1,0 0.2,0 0.2,0.1c0.1,0 0.1,0.1 0.2,0.1c0,0.1 0,0.1 0,0.2c0,0 0.1,0.1 0.1,0.1l0,0l-1.5,3.8c-0.1,0.2 -0.1,0.4 -0.2,0.6l0,3.6c0,0.1 0,0.1 0,0.2c0,0.1 -0.1,0.1 -0.2,0.1c-0.1,0 -0.1,0 -0.2,0.1l-0.9,0c-0.1,0 -0.1,0 -0.2,-0.1c-0.1,0 -0.1,-0.1 -0.1,-0.1c-0.1,-0.1 -0.1,-0.1 -0.1,-0.2z"/>
   <path stroke="null" d="m358.71192,377.97931l0,-8.1c0,-0.1 0.2,-0.3 0.3,-0.3c0,0 0,0 0,0l3.7,0c0.2,0 0.3,0.1 0.3,0.3c0,0 0,0 0,0l0,0.9c0,0.1 0,0.1 0,0.2c0,0.1 -0.1,0.1 -0.1,0.1c-0.1,0 -0.1,0 -0.2,0l-2.5,0l0,2l1.9,0c0.1,0 0.2,0 0.2,0.1c0.1,0.1 0.1,0.1 0.1,0.2l0,0.9c0,0.1 0,0.2 -0.1,0.2c0,0.1 -0.1,0.1 -0.2,0.1c-0.63333,0 -1.26666,0 -1.9,0l0,2.2l2.5,0c0.2,0 0.3,0.1 0.3,0.3c0,0 0,0 0,0l0,0.9c0,0.1 0,0.1 0,0.2c0,0 -0.1,0.1 -0.1,0.1c-0.1,0 -0.1,0 -0.2,0l-3.7,0c-0.1,0 -0.2,0 -0.2,-0.1c0,0 -0.1,-0.1 -0.1,-0.2z"/>
   <path d="m364.41192,377.1793c-0.2,-0.4 -0.3,-0.8 -0.3,-1.2l0,-4.2c0,-0.3 0,-0.6 0.1,-0.8c0.1,-0.3 0.2,-0.5 0.4,-0.7c0.2,-0.2 0.4,-0.4 0.6,-0.5c0.4,-0.2 0.8,-0.3 1.2,-0.3l0.4,0c0.3,0 0.5,0 0.8,0.1c0.2,0.1 0.5,0.2 0.7,0.3c0.2,0.1 0.4,0.3 0.5,0.5c0.2,0.3 0.4,0.8 0.4,1.2c0,0.1 0,0.1 -0.1,0.2c0,0 -0.1,0.1 -0.2,0.1l-1,0c-0.1,0 -0.1,0 -0.2,-0.1c0,-0.1 0,-0.2 0,-0.2c0,-0.2 -0.1,-0.3 -0.2,-0.5c-0.1,-0.1 -0.2,-0.2 -0.3,-0.2c-0.2,0 -0.3,-0.1 -0.5,-0.1l0,0c-0.2,0 -0.3,0 -0.5,0.1c-0.1,0.1 -0.3,0.2 -0.4,0.3c-0.1,0.1 -0.1,0.3 -0.1,0.5l0,4.1c0,0.2 0.1,0.3 0.1,0.5c0.1,0.2 0.2,0.3 0.4,0.4c0.2,0.1 0.3,0.1 0.5,0.1l0,0c0.2,0 0.3,0 0.5,-0.1c0.1,-0.1 0.3,-0.2 0.3,-0.4c0.1,-0.2 0.1,-0.3 0.1,-0.5l0,-0.5l-0.6,0c-0.1,0 -0.1,0 -0.2,-0.1c0,-0.1 -0.1,-0.1 0,-0.2l0,-0.9c0,0 0,-0.1 0,-0.1c0,-0.1 0.1,-0.1 0.1,-0.1c0.1,0 0.1,0 0.2,0l2,0c0,0 0.1,0 0.1,0c0,0 0.1,0.1 0.1,0.1c0,0 0,0.1 0,0.1l0,1.8c0,0.3 -0.1,0.6 -0.2,0.9c-0.1,0.3 -0.2,0.5 -0.4,0.7c-0.2,0.2 -0.4,0.4 -0.6,0.6c-0.4,0.2 -0.8,0.3 -1.2,0.3l-0.4,0c-0.3,0 -0.6,0 -0.8,-0.1c-0.3,-0.1 -0.5,-0.2 -0.7,-0.4c-0.3,-0.3 -0.5,-0.5 -0.6,-0.7z"/>
   <path d="m370.41192,377.9293l0,-8.1c0,-0.1 0,-0.1 0,-0.2c0,-0.1 0.1,-0.1 0.1,-0.1c0.1,0 0.1,0 0.2,0l2.5,0c0.3,0 0.7,0.1 1,0.2c0.3,0.1 0.5,0.4 0.7,0.6c0.2,0.3 0.2,0.6 0.2,0.9l0,1.5c0,0.2 0,0.4 -0.1,0.6c-0.1,0.2 -0.2,0.4 -0.3,0.5c-0.1,0.2 -0.3,0.3 -0.5,0.4l0,0l1.3,3.7c0,0 0,0.1 0,0.1c0,0.1 0,0.1 -0.1,0.1c0,0 -0.1,0.1 -0.2,0.1l-1.1,0c-0.1,0 -0.1,0 -0.2,0c-0.1,0 -0.1,-0.1 -0.2,-0.1c0,0 -0.1,-0.1 -0.1,-0.1l-1,-3.1c-0.1,-0.1 -0.2,-0.1 -0.3,-0.1c-0.1,0 -0.3,0.1 -0.3,0.2l0,3c0,0.1 0,0.2 -0.1,0.2c-0.1,0.1 -0.2,0.1 -0.2,0.1l-1,0c-0.1,0 -0.2,0 -0.3,-0.1c0,-0.1 0,-0.2 0,-0.3zm2.4,-4.7c0.1,0 0.2,0 0.3,-0.1c0.1,0 0.2,-0.1 0.3,-0.2c0.1,-0.1 0.1,-0.2 0.1,-0.3l0,-1.2c0,-0.1 0,-0.2 -0.1,-0.3c-0.1,-0.1 -0.1,-0.2 -0.3,-0.3c-0.1,-0.1 -0.2,-0.1 -0.3,-0.1l-0.7,0c0,0 -0.1,0 -0.1,0.1c0,0 0,0.1 0,0.1l0,2.1c0,0.1 0,0.1 0.1,0.1c0,0 0.1,0.1 0.2,0.1l0.5,0z"/>
   <rect height="13" width="1" y="367.4293" x="380.11192"/>
   <text font-weight="bold" transform="matrix(0.0869614 0 0 0.0869614 198.616 319.272)" stroke="null" xml:space="preserve" text-anchor="start" font-family="'Libre Franklin'" font-size="125" stroke-width="0" fill="#000000" id="svg_39" y="674.09939" x="2143.89401">FASHION</text>
  </g>
 </g>

</svg>